<svg xmlns="http://www.w3.org/2000/svg" xmlns:xlink="http://www.w3.org/1999/xlink" version="1.1" x="0px" y="0px" viewBox="0 0 100 125" style="enable-background:new 0 0 100 100;" xml:space="preserve"><g><path d="M91.5,78.4c-0.8-6-3.9-10.8-8.2-14.9c-3.6-3.4-8-5.5-12.7-6.9c-2.1-0.6-3.9-1.5-5.8-3.2c2.5-0.3,4.4-1.2,6.1-2.5   c1.1-0.8,1.6-1.9,1.2-3.3c-0.3-0.9-0.2-1.7,0.2-2.6c0.9-1.9,0.9-3.9,0.2-5.8c-0.8-2.4-2-4.6-3.7-6.5c-2.4-2.6-5.5-3.7-9-3.1   c-1.2,0.2-2.4,0.7-3.5-0.1c-1.2-0.7-2.2-0.4-3.2,0.3c-1.8,1.1-2.9,2.7-2.8,4.9c0,1.5-0.3,2.9-0.7,4.3c-0.4,1.3-0.9,1.4-2,0.7   c-3.5-2.4-7-4.7-10.6-7.1c-3.3-2.2-5.9-5.1-7.6-8.8c-2.2-4.6-1.5-9.8,1.8-13.6c0.3-0.4,0.7-0.8,1.2-1c3.6-1.4,7.6-0.6,11.3-1.3   c0.8-0.1,1.5,0.4,2.2,0.7c1.4,0.6,2.8,1.2,4.2,1.7c0.7,0.2,1.7,0.5,2.1-0.4c0.3-0.7-0.3-1.4-0.9-1.9C48.2,5.4,44.8,3.2,41,1.7   c-2.8-1.1-5.6-1-8.3,0.6c-3,1.7-5.9,3.6-8.5,5.9c-2.6,2.2-4.3,5-5,8.3c-0.6,2.9-0.1,5.7,0.6,8.5c2.2,8.9,6.7,16.1,15.3,20   c0.8,0.4,1.5,0.9,2.2,1.5c0.7,0.6,1.4,1.3,0.6,2.2c-0.8,1-1.8,0.8-2.6,0c-1-0.9-1.9-1.9-2.8-2.9c-2.2-2.4-4.2-2.6-6.9-0.8   c-2.1,1.4-4.2,2.9-6.4,4.3c-1.5,1-2.3,0.9-3.2-0.7c-1.2-2.2-3.3-3.1-5.5-3.8c-0.8-0.3-1.6,0.2-2.1,0.8C7.7,46,8.4,46.6,8.7,47   c0.5,0.6,0.6,1.2,0.4,2c-0.3,1-0.1,1.9,1,2.4c2.5,1.1,3.8,3.1,4.8,5.5c0.9,2.1,1.8,2.4,4,1.5c1.6-0.7,3.3-1.3,4.9-2   c1.3-0.6,2.2-0.2,2.6,1.2c0.5,1.5,1,3.1,1.5,4.6c1.2,3.5,1,3.9-1.9,6.2c-0.3,0.2-0.6,0.4-0.8,0.7c-0.9,1.1-1.7,1-2.7,0.1   c-0.9-0.8-1.8-1.5-2.7-2.1c-1.5-1-3-1.5-4.7-0.5c-1.7,1-1.7,2.8-1.5,4.3c0.1,1.8-0.3,2.9-1.9,3.7c-1.1,0.6-1.6,1.5-1.1,2.7   c0.2,0.5,0.2,1.1,0.4,1.7c0.4,1.3,1.2,1.8,2.5,1.3c1.5-0.5,2.8-1.3,3.7-2.5c0.9-1.2,1.6-1.1,2.6-0.1c3.1,2.7,5.4,2.9,9,0.7   c2.2-1.3,4.2-2.9,6-4.8c1.5-1.5,2.8-3.1,5.3-2.6c0.3,0.1,0.7-0.1,1.1-0.2c3.6-0.6,6.6-2.5,9-5c2.9-3.1,8.8-4.3,12.7-1.3   c2,1.5,4.4,2.6,6.7,3.6c3.6,1.5,7.1,3.2,10.3,5.6c4.3,3.2,5.8,7.5,4.7,12.7c-0.6,3-2,4-5,3.4c-1.9-0.4-3.5-0.1-5,1.1   c-1.4,1.1-3.1,1.7-5,1.3c-1-0.2-2-0.5-3.1-0.1c-1,0.4-2.2,0.9-2.1,2c0,1,1.3,1.1,2.1,1.3C70.3,97,74,98.2,77.8,99   c0.4,0,0.8,0,1.3,0c1.4-0.5,2.9-0.6,4.3-1.3c4.8-2.4,6.9-6.7,8-11.6c0.2-0.8,0.4-1.6,0.5-2.4c0-1,0-2.1,0-3.1   C91.8,79.8,91.6,79.1,91.5,78.4z M69.9,47.6c0.6,0.7,0.5,1.7-0.1,2.3c-0.7,0.6-1.7,0.5-2.3-0.1C67,49,67,48,67.7,47.4   C68.3,46.9,69.3,46.9,69.9,47.6z M53.6,31.7c0.7-0.6,1.7-0.5,2.3,0.1c0.6,0.7,0.5,1.7-0.1,2.3C55,34.7,54,34.6,53.4,34   C52.9,33.3,52.9,32.3,53.6,31.7z M53,48.5c-2.5-2.8-3.2-6.6-1.7-9.1c0.5,2,2,4.5,4.1,6.9c2.1,2.4,4.5,4.1,6.4,4.9   C59.2,52.4,55.6,51.4,53,48.5z M63,50.4c-1.6-0.3-4.2-1.9-6.8-4.8c-2.6-2.9-3.9-5.7-4.1-7.2c0,0,0,0,0.1-0.1c1.2-1,2.7-1.4,4.3-1.3   c0.2-0.7,0.6-1.4,1.2-2c1.6-1.4,3.9-1.3,5.3,0.3c0.9,1,1.1,2.3,0.9,3.4c1.2-0.2,2.4,0.3,3.3,1.2c1.4,1.6,1.3,3.9-0.3,5.3   c-0.6,0.5-1.4,0.9-2.1,0.9C64.8,47.9,64.3,49.3,63,50.4C63.1,50.4,63.1,50.4,63,50.4z"/><circle cx="60.3" cy="38.6" r="1.6"/><circle cx="63.7" cy="42.4" r="1.6"/></g><text x="0" y="115" fill="#000000" font-size="5px" font-weight="bold" font-family="'Helvetica Neue', Helvetica, Arial-Unicode, Arial, Sans-serif">Created by Harold Weaver</text><text x="0" y="120" fill="#000000" font-size="5px" font-weight="bold" font-family="'Helvetica Neue', Helvetica, Arial-Unicode, Arial, Sans-serif">from the Noun Project</text></svg>